<?xml version="1.0" standalone="no"?>
<!DOCTYPE svg PUBLIC "-//W3C//DTD SVG 20010904//EN"
 "http://www.w3.org/TR/2001/REC-SVG-20010904/DTD/svg10.dtd">
<svg version="1.0" xmlns="http://www.w3.org/2000/svg"
 width="512.000000pt" height="512.000000pt" viewBox="0 0 512.000000 512.000000"
 preserveAspectRatio="xMidYMid meet">
<metadata>
Created by potrace 1.11, written by Peter Selinger 2001-2013
</metadata>
<g transform="translate(0.000000,512.000000) scale(0.100000,-0.100000)"
fill="#000000" stroke="none">
<path d="M753 4576 c-129 -41 -206 -142 -226 -296 -14 -112 -21 -3507 -7
-3589 27 -156 131 -262 285 -290 83 -15 3427 -15 3510 0 154 28 258 134 285
290 14 82 7 3477 -7 3590 -17 135 -83 232 -192 283 l-46 21 -1780 2 c-1445 1
-1788 -1 -1822 -11z m967 -1542 c103 -47 153 -132 154 -259 0 -132 -52 -219
-162 -267 -36 -16 -76 -21 -203 -25 l-159 -6 0 -173 0 -174 -90 0 -90 0 0 466
0 466 253 -4 c228 -3 256 -6 297 -24z m420 19 c0 -21 133 -619 139 -626 4 -4
31 84 60 195 29 112 67 256 84 321 l30 118 111 -3 111 -3 80 -317 c44 -174 83
-319 86 -322 5 -6 29 96 117 509 l27 130 94 3 c93 3 93 3 88 -20 -4 -12 -55
-222 -114 -465 l-107 -443 -98 0 -97 0 -11 38 c-5 20 -47 175 -92 345 -45 169
-84 307 -87 307 -3 0 -47 -154 -96 -343 l-91 -342 -102 -3 c-56 -1 -102 0
-102 3 0 8 -208 883 -216 908 -5 15 4 17 90 17 53 0 96 -3 96 -7z m1609 -200
c46 -115 130 -324 186 -465 l103 -258 -98 0 -99 0 -39 103 -40 102 -192 0
-193 0 -35 -102 -36 -103 -99 0 c-54 0 -96 3 -93 8 6 11 227 578 288 742 28
74 54 145 59 158 8 21 14 22 107 22 l98 0 83 -207z"/>
<path d="M1350 2769 l0 -142 118 5 c172 7 217 36 217 138 0 51 -4 63 -29 89
-36 37 -95 51 -216 51 l-90 0 0 -141z"/>
<path d="M3501 2671 c-33 -92 -61 -171 -61 -175 0 -3 59 -6 131 -6 101 0 130
3 127 13 -88 242 -124 337 -129 337 -4 0 -34 -76 -68 -169z"/>
</g>
</svg>
